<?xml version="1.0" encoding="UTF-8"?><svg id="a" xmlns="http://www.w3.org/2000/svg" viewBox="0 0 176.12 147.88"><defs><style>.c{fill:#009fe3;}.d{fill:#1d71b8;}</style></defs><g id="b"><path class="d" d="M110.33,90.4l-18.36,41.96c-2.17,5.27-20.73-29.87-20.73-29.87l9.14-22.28s6.88-22.2,23.25-16.63c16.4,5.56,6.71,26.82,6.71,26.82Z"/><path class="c" d="M111.08,147.6c-3.21-.35-6.76-1.14-9.63-2.01-4.68-1.42-9.07-3.25-13.17-5.48-11.18-6.1-19.72-14.78-25.61-26.02-5.9-11.25-8.85-24.41-8.85-39.5,0-11.24,1.68-21.46,5.04-30.65,3.36-9.19,8.26-17.08,14.71-23.66,6.44-6.58,14.3-11.59,23.56-15.02C106.38,1.82,116.77,.11,128.29,.11c7.13,0,14.19,.82,21.19,2.47,6.99,1.65,13.1,4.05,18.31,7.2,3.43,2.06,5.76,4.49,7,7.3,1.23,2.81,1.61,5.63,1.13,8.44-.48,2.81-1.65,5.28-3.5,7.41-1.85,2.13-4.15,3.5-6.89,4.11-2.74,.62-5.83-.03-9.26-1.95-4.11-2.47-8.4-4.25-12.86-5.35-4.46-1.1-9.09-1.65-13.89-1.65-9.19,0-16.91,1.82-23.14,5.45-6.24,3.63-10.9,8.85-13.99,15.63-3.09,6.79-4.63,15.26-4.63,25.41s1.54,18.31,4.63,25.3c3.09,7,7.75,12.31,13.99,15.94,1.53,.89,3.15,1.67,4.86,2.35,1.77,.7,3.45,1.27,5.61,1.74,3.77,.81,9.15,.86,12.21,3.47,3.87,3.52,5.98,15.82-.65,21.5-3.23,2.99-9.99,3.35-17.33,2.71Z"/><path class="d" d="M87.75,139.81c-1.33,1.69-2.8,3.11-4.42,4.26-3.63,2.52-7.96,3.81-13.06,3.81s-9.11-1.29-12.71-3.81c-3.63-2.55-6.59-6.44-8.93-11.71L2.07,24.3C.31,20-.33,15.99,.16,12.3c.47-3.72,2.23-6.71,5.27-8.93C8.45,1.11,12.61,0,17.88,0c4.48,0,8.08,1.03,10.83,3.07,2.72,2.05,5.15,5.89,7.32,11.57l35.2,87.85s15.22,34.44,16.51,37.32Z"/></g></svg>